Coordinates
version=1
nRows=26
nColumns=24
inDegrees=yes

Units are S.I. units (second, meters, Newtons, ...)
Angles are in degrees.

endheader
time	pelvis_tilt	pelvis_list	pelvis_rotation	pelvis_tx	pelvis_ty	pelvis_tz	hip_flexion_r	hip_adduction_r	hip_rotation_r	knee_angle_r	ankle_angle_r	subtalar_angle_r	mtp_angle_r	hip_flexion_l	hip_adduction_l	hip_rotation_l	knee_angle_l	ankle_angle_l	subtalar_angle_l	mtp_angle_l	lumbar_extension	lumbar_bending	lumbar_rotation
      1.21500000	     13.75831462	      0.39680042	     -0.52604844	     -0.64677787	      0.93608621	      0.00011025	    -31.05225803	      2.84142611	    -10.40798321	     -9.05463828	     25.86355393	     -2.07577467	     19.20107805	     -0.69935507	      4.30686615	    -16.06388036	      9.04304686	      4.22837767	     -2.91108109	     36.16221946	    -21.04400020	     -1.60390623	      3.61743491
      1.22000000	     13.83667813	      0.64827960	     -0.72188859	     -0.64048166	      0.93555268	      0.00006163	    -31.41777304	      2.43081612	    -10.41964106	     -9.33498854	     25.95344031	     -1.76216235	     18.57687063	     -0.75881333	      4.56670829	    -15.90307046	      8.68322011	      3.73271957	     -3.69011903	     36.62510365	    -21.09223930	     -1.98571427	      3.67223732
      1.22500000	     13.84195764	      0.88781906	     -1.00381964	     -0.63420051	      0.93507784	      0.00015321	    -31.65565529	      1.98712606	    -10.24658073	     -9.68712920	     25.90421932	     -1.64203373	     18.59323642	     -0.67892789	      4.79636637	    -15.98844166	      8.12550528	      3.33885570	     -4.17013479	     36.71161176	    -21.05751591	     -2.38542528	      3.85626672
      1.23000000	     13.89220425	      1.19655675	     -1.21213741	     -0.62784732	      0.93471721	      0.00011276	    -31.94827268	      1.50428891	    -10.25248312	    -10.03580707	     25.79297172	     -1.37761044	     18.86650579	     -0.67288880	      5.08976331	    -15.74192894	      7.54539384	      2.82694829	     -5.17655960	     36.95032918	    -21.06745866	     -2.83866790	      3.92044491
      1.23500000	     13.89522719	      1.53631320	     -1.35032709	     -0.62154652	      0.93438641	      0.00000109	    -32.16396227	      1.03211819	    -10.28019510	    -10.42482334	     25.63785384	     -1.27832237	     19.59431095	     -0.57251840	      5.39786767	    -15.40776960	      6.84401951	      2.20191214	     -6.25274916	     37.42786207	    -21.03647098	     -3.30829956	      3.89418168
      1.24000000	     13.85900163	      1.86039762	     -1.55714251	     -0.61525612	      0.93414286	     -0.00000556	    -32.29729484	      0.53984125	    -10.14068368	    -10.86022583	     25.29415425	     -1.34169942	     21.25964739	     -0.39250612	      5.67845519	    -15.24978419	      6.02525277	      1.64674358	     -7.19504627	     38.40116908	    -20.96158239	     -3.78548825	      3.97025754
      1.24500000	     13.88765746	      2.24359768	     -1.77567335	     -0.60889784	      0.93407349	     -0.00005477	    -32.45920962	     -0.03573091	    -10.11984183	    -11.39320705	     25.09998946	     -1.13690122	     21.55697903	     -0.29486036	      6.02961620	    -15.12826094	      5.17809326	      1.18208818	     -7.98972357	     38.36089854	    -20.94925957	     -4.32662672	      4.03942324
      1.25000000	     13.83281762	      2.61651596	     -1.86103086	     -0.60262814	      0.93396908	     -0.00027711	    -32.50540786	     -0.52985624	    -10.14843721	    -11.96692519	     24.80814396	     -1.04379057	     22.29068362	     -0.06271862	      6.34858236	    -14.70038841	      4.21544448	      0.75841490	     -9.08364320	     38.33891764	    -20.86588799	     -4.81764569	      3.98470858
      1.25500000	     13.82275005	      2.99619653	     -1.96459173	     -0.59633625	      0.93403943	     -0.00048676	    -32.57111369	     -1.03692787	    -10.09828664	    -12.56665775	     24.21330865	     -1.27028144	     24.68502540	      0.11044153	      6.68047888	    -14.37924290	      3.24776857	      0.36162260	     -9.97720807	     38.55795734	    -20.83204602	     -5.32040348	      3.93636673
      1.26000000	     13.68062541	      3.35006780	     -2.01695515	     -0.59013044	      0.93402382	     -0.00080312	    -32.39616495	     -1.51867870	    -10.09359758	    -13.37576498	     23.90115277	     -1.14328638	     25.17629849	      0.49153036	      6.97081340	    -14.05654280	      2.12710318	      0.18334938	    -10.73294913	     38.46776778	    -20.66808338	     -5.77425930	      3.84503490
      1.26500000	     13.59867834	      3.71135248	     -1.97600657	     -0.58391085	      0.93416875	     -0.00126542	    -32.29225191	     -1.95108229	    -10.13343213	    -14.15556538	     23.31358711	     -1.30742102	     26.81318642	      0.75879886	      7.28531551	    -13.50212130	      1.08141964	     -0.11546459	    -11.70062553	     38.24834889	    -20.58080336	     -6.20749156	      3.66860232
      1.27000000	     13.48885846	      4.03692749	     -2.03555803	     -0.57773097	      0.93436592	     -0.00162936	    -32.03493510	     -2.42631535	    -10.05763230	    -15.14449696	     22.68077307	     -1.45945278	     29.11153067	      1.07683755	      7.56344760	    -13.23384780	     -0.02431929	     -0.13887772	    -12.31641858	     37.92822766	    -20.45866443	     -6.63073667	      3.63644826
      1.27500000	     13.28763094	      4.31301923	     -1.98749473	     -0.57158735	      0.93450856	     -0.00215646	    -31.62889148	     -2.81140162	    -10.03601263	    -16.24552484	     22.13312794	     -1.44069945	     29.69018634	      1.51766121	      7.78385692	    -12.90193885	     -1.20126294	     -0.01819296	    -12.77708158	     37.79260838	    -20.25327187	     -6.96298412	      3.51827687
      1.28000000	     13.13346758	      4.59972468	     -1.86391590	     -0.56542675	      0.93477836	     -0.00283629	    -31.25069884	     -3.17062673	    -10.07042748	    -17.36911588	     21.26793007	     -1.76053852	     32.11038269	      1.83375687	      8.04775253	    -12.35560753	     -2.24528457	     -0.03330387	    -13.49355672	     37.18973422	    -20.10850741	     -7.28082274	      3.29843249
      1.28500000	     12.93189856	      4.82703501	     -1.82282243	     -0.55929230	      0.93505045	     -0.00342761	    -30.70308830	     -3.53813155	     -9.97896579	    -18.68780494	     20.42570846	     -1.97002669	     34.30804113	      2.20491193	      8.24423084	    -12.10091599	     -3.31395542	      0.22839103	    -13.74280478	     36.59491500	    -19.90501098	     -7.55588211	      3.22922165
      1.29000000	     12.71133288	      4.98707754	     -1.73051818	     -0.55327317	      0.93531298	     -0.00415661	    -30.04999127	     -3.84137767	     -9.90440517	    -20.16239964	     19.69451703	     -1.93972232	     35.17215257	      2.59393297	      8.38168953	    -11.78894829	     -4.38205742	      0.59247393	    -14.03215437	     36.35953014	    -19.70218514	     -7.73148914	      3.11370411
      1.29500000	     12.54675745	      5.17205040	     -1.66304230	     -0.54719147	      0.93571907	     -0.00487433	    -29.41186059	     -4.18364333	     -9.82790778	    -21.67221540	     18.60038700	     -2.31534363	     38.37552355	      2.83071084	      8.57129472	    -11.49974876	     -5.27538807	      0.84854705	    -14.29039528	     35.35519195	    -19.55072514	     -7.94197369	      3.02476978
      1.30000000	     12.27129042	      5.26822166	     -1.56443507	     -0.54122050	      0.93597849	     -0.00568339	    -28.54378956	     -4.45153695	     -9.70379573	    -23.38389616	     17.70409893	     -2.32964927	     39.04011419	      3.20196362	      8.66409702	    -11.25433350	     -6.20276546	      1.30401681	    -14.39332565	     35.16656096	    -19.29050071	     -8.03755527	      2.95233439
      1.30500000	     12.07498177	      5.38042416	     -1.49043899	     -0.53523587	      0.93638680	     -0.00649245	    -27.71747502	     -4.74962490	     -9.57953890	    -25.11145341	     16.43314944	     -2.75664314	     42.35666694	      3.40564745	      8.79938723	    -11.01838949	     -6.97254945	      1.71040038	    -14.48845726	     33.97378802	    -19.11484230	     -8.15276474	      2.87351432
      1.31000000	     11.81062808	      5.44047483	     -1.42510939	     -0.52934160	      0.93669896	     -0.00729806	    -26.72473169	     -5.01065268	     -9.38034968	    -26.98270324	     15.27628950	     -3.02304041	     44.20023157	      3.67807486	      8.87783006	    -10.86764813	     -7.72853272	      2.24241764	    -14.46849026	     33.07654282	    -18.86925211	     -8.21250025	      2.84049779
      1.31500000	     11.54176554	      5.48072570	     -1.37717745	     -0.52353087	      0.93700732	     -0.00811845	    -25.64389784	     -5.27570322	     -9.17710121	    -28.95928439	     14.02079406	     -3.27866080	     45.93661331	      3.92311534	      8.94414219	    -10.74927037	     -8.41346593	      2.77854600	    -14.42498957	     32.24734809	    -18.62652268	     -8.24766163	      2.80860170
      1.32000000	     11.22089104	      5.49095415	     -1.38477972	     -0.51775887	      0.93723880	     -0.00889295	    -24.42583236	     -5.53846349	     -8.86504526	    -31.03840305	     12.84389480	     -3.35945052	     46.40551578	      4.17274500	      8.98446959	    -10.68751356	     -8.97954117	      3.28368431	    -14.41163466	     32.09138232	    -18.31669899	     -8.25972354	      2.86655973
      1.32500000	     10.94090879	      5.50075216	     -1.35684870	     -0.51202760	      0.93753652	     -0.00970644	    -23.23474400	     -5.77937089	     -8.61428451	    -33.07870672	     11.36876282	     -3.80193173	     49.06841631	      4.34627835	      9.03279358	    -10.62058383	     -9.49435613	      3.86978176	    -14.23158761	     30.69136532	    -18.06190608	     -8.25956928	      2.86389293
      1.33000000	     10.62811472	      5.49296925	     -1.42492645	     -0.50638991	      0.93775091	     -0.01038909	    -21.91433787	     -6.03173247	     -8.22091381	    -35.23499538	     10.11370346	     -4.02930184	     49.31847041	      4.53035182	      9.05962707	    -10.66329461	     -9.92892557	      4.39284705	    -14.19664277	     30.52046056	    -17.76423565	     -8.26371569	      2.98285730
      1.33500000	     10.28849995	      5.47007768	     -1.46637665	     -0.50081923	      0.93791775	     -0.01109108	    -20.54001304	     -6.24359025	     -7.83205217	    -37.37847261	      8.79554300	     -4.32144341	     49.76399988	      4.72807087	      9.07256266	    -10.68309025	    -10.33060959	      4.93694833	    -14.12768464	     30.19895243	    -17.44569582	     -8.24103388	      3.05524723
      1.34000000	      9.99019627	      5.46653670	     -1.49348714	     -0.49523729	      0.93815223	     -0.01178969	    -19.21746636	     -6.46090043	     -7.49967475	    -39.43942298	      7.35041128	     -4.78590161	     51.71786984	      4.84362370	      9.10914428	    -10.70557823	    -10.68124526	      5.63895746	    -13.76886063	     27.93346423	    -17.17286413	     -8.23677853	      3.07472724
